<?xml version="1.0" standalone="no"?>
<svg viewBox="0 0 200 200" xmlns="http://www.w3.org/2000/svg">
  <path fill="#F25C05" d="M40.3,-68C54,-61.9,68,-54.6,77,-43.1C85.9,-31.6,89.9,-15.8,88.3,-0.9C86.7,13.9,79.5,27.8,71.2,40.6C62.9,53.3,53.5,64.9,41.5,74.6C29.4,84.3,14.7,92.1,0.3,91.7C-14.2,91.2,-28.4,82.5,-40.4,72.7C-52.4,63,-62.3,52.4,-71.9,40.1C-81.5,27.8,-90.7,13.9,-91.8,-0.6C-92.9,-15.2,-85.9,-30.3,-77.4,-44.5C-68.9,-58.7,-59,-71.9,-45.9,-78.3C-32.7,-84.7,-16.4,-84.4,-1.5,-81.7C13.3,-79.1,26.6,-74.1,40.3,-68Z" transform="translate(100 100)" />
</svg>
